<?xml version="1.0" encoding="UTF-8" standalone="no"?> <!-- Created with Vectornator for iOS (http://vectornator.io/) --><!DOCTYPE svg PUBLIC "-//W3C//DTD SVG 1.1//EN" "http://www.w3.org/Graphics/SVG/1.1/DTD/svg11.dtd">
<svg height="100%" style="fill-rule:nonzero;clip-rule:evenodd;stroke-linecap:round;stroke-linejoin:round;" xmlns:xlink="http://www.w3.org/1999/xlink" xmlns="http://www.w3.org/2000/svg" xml:space="preserve" width="100%" xmlns:vectornator="http://vectornator.io" version="1.1" viewBox="0 0 534.416 609.674">
<metadata>
<vectornator:setting key="DimensionsVisible" value="1"/>
<vectornator:setting key="PencilOnly" value="0"/>
<vectornator:setting key="SnapToPoints" value="0"/>
<vectornator:setting key="OutlineMode" value="0"/>
<vectornator:setting key="CMYKEnabledKey" value="0"/>
<vectornator:setting key="RulersVisible" value="1"/>
<vectornator:setting key="SnapToEdges" value="0"/>
<vectornator:setting key="GuidesVisible" value="1"/>
<vectornator:setting key="DisplayWhiteBackground" value="0"/>
<vectornator:setting key="doHistoryDisabled" value="0"/>
<vectornator:setting key="SnapToGuides" value="1"/>
<vectornator:setting key="TimeLapseWatermarkDisabled" value="0"/>
<vectornator:setting key="Units" value="Pixels"/>
<vectornator:setting key="DynamicGuides" value="1"/>
<vectornator:setting key="IsolateActiveLayer" value="0"/>
<vectornator:setting key="SnapToGrid" value="0"/>
</metadata>
<defs>
<linearGradient y1="792" id="LinearGradient" x1="268.122" y2="179.946" x2="494.831" gradientUnits="userSpaceOnUse" gradientTransform="matrix(1 0 0 1 -1.04362 -179.946)">
<stop stop-color="#602099" offset="0"/>
<stop stop-color="#933bdf" offset="1"/>
</linearGradient>
</defs>
<g id="Layer 1" vectornator:layerName="Layer 1">
<path d="M534.157+28.442C514.342+2.08582+514.43+1.45802+494.181+0C473.931-1.45802+461.745+14.2314+453.159+22.6099C435.196+40.1393+433.73+64.032+435.408+95.6356C437.086+127.239+457.339+165.236+415.412+178.708C391.058+193.825+364.337+170.153+324.192+205.477C279.754+239.223+296.613+317.122+251.505+338.675C227.87+350.844+149.381+322.746+126.009+322.746C102.637+322.746+26.694+322.92+0+369.225C0+436.228+0+570.83+0+609.674C62.3279+610.234+433.344+609.674+534.405+609.674C534.416+484.125+534.716+83.9403+534.157+28.442Z" opacity="1" fill="url(#LinearGradient)"/>
</g>
</svg>
